<svg width="418" height="60" viewBox="0 0 418 60" fill="none" xmlns="http://www.w3.org/2000/svg">
<g clip-path="url(#clip0_518_28)">
<path d="M97.8485 41.7351C97.4219 44.1005 96.1974 46.2482 94.3792 47.8201C92.5609 49.3921 90.2588 50.2933 87.8566 50.3735C86.8028 50.4059 85.7559 50.1931 84.7984 49.7519C83.8409 49.3107 82.999 48.6531 82.339 47.831C81.679 47.0089 81.219 46.0447 80.9952 45.0145C80.7714 43.9843 80.7899 42.9161 81.0494 41.8943C81.4591 39.5355 82.6679 37.3894 84.4729 35.8165C86.2778 34.2435 88.5689 33.3394 90.9616 33.2559C92.0295 33.1843 93.099 33.37 94.0802 33.7974C95.0614 34.2249 95.9257 34.8816 96.6005 35.7124C97.2752 36.5431 97.7407 37.5237 97.9579 38.5717C98.1751 39.6197 98.1375 40.7046 97.8485 41.7351M101.033 25.0156L100.317 28.5187C99.4406 26.919 98.101 25.6217 96.4739 24.7975C94.8469 23.9733 93.0085 23.6608 91.2005 23.901C86.2897 24.0981 81.599 25.9907 77.9265 29.2568C74.254 32.5229 71.8267 36.9605 71.0575 41.8147C69.3059 51.4085 73.9237 59.808 84.5525 59.808C86.5838 59.8833 88.6054 59.4918 90.4617 58.6637C92.3181 57.8356 93.9599 56.5929 95.2609 55.031L94.624 58.6138H104.536L110.786 25.135H101.033V25.0156ZM116.558 25.0554H125.913L125.276 28.5585C126.295 27.0247 127.699 25.7866 129.349 24.9688C130.998 24.1511 132.834 23.7828 134.671 23.901L132.84 33.9725C128.143 33.9725 124.878 35.0075 123.803 40.1427L120.38 58.5341H110.308L116.558 25.0554Z" fill="white"/>
<path d="M141.4 11.918L132.762 58.5334H142.833L145.819 42.3713H145.978L152.427 58.5334H163.772L155.015 39.7439L170.341 25.0547H158.518L146.933 37.1962H146.774L151.472 11.918H141.4Z" fill="white"/>
<path d="M176.271 38.0721C176.995 36.362 178.209 34.9047 179.761 33.8844C181.312 32.8641 183.132 32.3266 184.989 32.3397C185.8 32.2446 186.623 32.3216 187.402 32.5657C188.182 32.8098 188.901 33.2156 189.514 33.7565C190.126 34.2974 190.617 34.9613 190.956 35.7049C191.294 36.4485 191.472 37.2552 191.477 38.0721H176.271ZM186.422 23.9004C181.431 24.1671 176.671 26.0885 172.894 29.3612C169.117 32.6339 166.537 37.0715 165.562 41.9733C165.039 44.1275 165.021 46.3735 165.51 48.5356C165.999 50.6978 166.982 52.7175 168.381 54.4368C169.781 56.156 171.559 57.5283 173.577 58.4462C175.594 59.3641 177.797 59.8027 180.013 59.7278C183.59 59.7007 187.084 58.6509 190.084 56.7024C193.53 54.5645 196.411 51.629 198.484 48.1436H188.253C187.43 49.1257 186.4 49.9134 185.237 50.4502C184.074 50.9871 182.806 51.2597 181.525 51.2487C180.655 51.3499 179.774 51.2584 178.943 50.9808C178.112 50.7031 177.352 50.2461 176.718 49.642C176.083 49.038 175.59 48.3018 175.272 47.4856C174.954 46.6694 174.819 45.7932 174.877 44.9191H199.996C200.335 44.0735 200.575 43.192 200.713 42.2918C202.624 31.862 196.653 23.9004 186.422 23.9004Z" fill="white"/>
<path d="M57.722 11.918L40.0471 38.4701H39.8879V11.918H31.3291L0 58.5334H12.1415L29.7368 31.9813H29.896V58.5334H38.5344L56.1296 31.9813H56.2889V58.5334H66.3603V11.918H57.722ZM226.151 25.0547H219.821L221.652 15.1424H212.855L212.138 19.1233C211.929 20.861 211.069 22.4551 209.733 23.585C208.396 24.7149 206.681 25.2969 204.933 25.2139L203.42 32.6183H208.396L203.579 58.5334H213.571L218.388 32.6183H224.797L226.151 25.0547Z" fill="white"/>
<path d="M390.638 11.9581H400.63L397.604 28.5581C398.639 26.9934 400.076 25.7356 401.764 24.9163C403.451 24.0969 405.328 23.7461 407.198 23.9006C408.806 23.8129 410.412 24.1061 411.886 24.7563C413.359 25.4066 414.658 26.3955 415.677 27.6425C417.827 30.9068 417.588 33.8924 416.473 39.8637L413.05 58.5735H403.058L406.402 40.3414C406.72 38.749 407.676 33.2953 402.421 33.2953C400.652 33.3105 398.954 33.9904 397.664 35.1998C396.373 36.4093 395.584 38.0599 395.455 39.8239L391.991 58.5337H382.159L390.638 11.9581ZM348.521 25.055H342.35L344.062 15.1428H335.265L334.389 18.9643C334.179 20.7021 333.32 22.2962 331.983 23.4261C330.647 24.556 328.932 25.138 327.183 25.055L325.83 32.6186H330.766L325.989 58.5337H335.981L340.758 32.6186H347.167L348.521 25.055ZM300.313 50.3731C302.75 50.3381 305.099 49.4573 306.958 47.8815C308.817 46.3057 310.07 44.1328 310.504 41.7347C310.793 40.7042 310.83 39.6193 310.613 38.5713C310.396 37.5233 309.931 36.5427 309.256 35.7119C308.581 34.8812 307.717 34.2245 306.736 33.797C305.754 33.3696 304.685 33.1839 303.617 33.2555C301.224 33.339 298.933 34.2431 297.128 35.8161C295.323 37.389 294.114 39.5351 293.705 41.8939C293.445 42.9157 293.427 43.9839 293.651 45.0141C293.874 46.0443 294.334 47.0085 294.994 47.8306C295.654 48.6527 296.496 49.3103 297.454 49.7515C298.411 50.1927 299.458 50.4055 300.512 50.3731M317.391 58.3347H307.279L307.916 54.752C306.619 56.3721 304.96 57.6659 303.073 58.53C301.186 59.3941 299.123 59.8044 297.049 59.728C286.42 59.728 281.762 51.3284 283.554 41.7347C284.338 36.9015 286.767 32.4873 290.43 29.2379C294.092 25.9886 298.765 24.1032 303.657 23.9006C305.448 23.7011 307.258 24.0418 308.854 24.8788C310.45 25.7159 311.759 27.0111 312.614 28.5979L313.33 25.0948H323.242L317.391 58.3347ZM298.163 0.015625L278.657 11.9581H284.191L266.516 38.4704V11.9581H257.718L240.043 38.4704V11.9581H229.812V58.5337H238.53L256.205 31.8622V58.5337H264.844L296.252 11.9581H301.189L298.163 0.015625ZM381.203 45.8349C379.524 49.8334 376.735 53.2671 373.165 55.7293C369.595 58.1916 365.394 59.5792 361.06 59.728C358.79 59.8538 356.522 59.4406 354.442 58.5221C352.362 57.6036 350.529 56.206 349.092 54.4434C347.656 52.6807 346.657 50.6032 346.177 48.3806C345.697 46.1579 345.75 43.8533 346.331 41.655C347.322 36.7386 349.953 32.3043 353.793 29.0786C357.634 25.853 362.456 24.0273 367.469 23.9006C369.399 23.7756 371.334 24.047 373.156 24.698C374.977 25.349 376.645 26.3659 378.059 27.686C379.472 29.0061 380.6 30.6016 381.374 32.3741C382.147 34.1466 382.55 36.0587 382.557 37.9927H372.406C372.116 36.5482 371.3 35.263 370.115 34.3873C368.93 33.5116 367.462 33.1082 365.997 33.2555C363.657 33.2928 361.409 34.1697 359.663 35.7262C357.916 37.2827 356.788 39.4152 356.482 41.7347C356.146 42.7317 356.057 43.7957 356.223 44.8348C356.389 45.8739 356.806 46.857 357.436 47.6993C358.067 48.5417 358.893 49.2179 359.844 49.6699C360.794 50.1218 361.84 50.3358 362.891 50.2934C364.485 50.2733 366.048 49.8548 367.439 49.0761C368.83 48.2974 370.003 47.1832 370.853 45.8349H381.084H381.203Z" fill="white"/>
</g>
<defs>
<clipPath id="clip0_518_28">
<rect width="417.827" height="60" fill="white"/>
</clipPath>
</defs>
</svg>
