<svg width="322" height="80" viewBox="0 0 322 80" fill="none" xmlns="http://www.w3.org/2000/svg">
<g clip-path="url(#clip0_518_46)">
<path d="M57.262 24.0453V25.0053C56.2375 25.0373 55.4691 25.1653 54.9568 25.3893C54.4445 25.5813 54.0923 25.9653 53.9002 26.5413C53.7401 27.0853 53.6601 27.9493 53.6601 29.1333V52.9413C53.6601 54.0933 53.7401 54.9573 53.9002 55.5333C54.0923 56.1093 54.4445 56.4933 54.9568 56.6853C55.4691 56.8773 56.2375 57.0053 57.262 57.0693V58.0293C56.3656 57.9653 55.2289 57.9333 53.8522 57.9333C52.5075 57.9013 51.1307 57.8853 49.722 57.8853C48.1852 57.8853 46.7444 57.9013 45.3996 57.9333C44.0549 57.9333 42.9663 57.9653 42.1339 58.0293V57.0693C43.2225 57.0053 44.0389 56.8773 44.5832 56.6853C45.1595 56.4933 45.5437 56.1093 45.7358 55.5333C45.9279 54.9573 46.024 54.0933 46.024 52.9413V26.9733H46.3602L34.4498 58.0773H33.6813L20.7143 27.1653V50.1573C20.7143 51.9173 20.8104 53.2773 21.0025 54.2373C21.1946 55.1653 21.6108 55.8373 22.2512 56.2533C22.9235 56.6373 23.9641 56.9093 25.3729 57.0693V58.0293C24.7645 57.9653 23.9641 57.9333 22.9716 57.9333C21.979 57.9013 21.0505 57.8853 20.1861 57.8853C19.4497 57.8853 18.6973 57.9013 17.9288 57.9333C17.1604 57.9333 16.5201 57.9653 16.0078 58.0293V57.0693C17.0324 56.9093 17.8008 56.6373 18.3131 56.2533C18.8253 55.8693 19.1615 55.2453 19.3216 54.3813C19.5137 53.4853 19.6098 52.2693 19.6098 50.7333V29.1333C19.6098 27.9493 19.5137 27.0853 19.3216 26.5413C19.1615 25.9653 18.8093 25.5813 18.265 25.3893C17.7528 25.1653 17.0003 25.0373 16.0078 25.0053V24.0453C16.5201 24.0773 17.1604 24.1093 17.9288 24.1413C18.6973 24.1733 19.4497 24.1893 20.1861 24.1893C21.5628 24.1893 22.9075 24.1733 24.2202 24.1413C25.565 24.1093 26.7496 24.0773 27.7742 24.0453L37.8596 48.3813L36.6589 49.4853L46.3121 24.1893C46.8564 24.1893 47.4167 24.1893 47.993 24.1893C48.5694 24.1893 49.1457 24.1893 49.722 24.1893C51.1307 24.1893 52.5075 24.1733 53.8522 24.1413C55.2289 24.1093 56.3656 24.0773 57.262 24.0453Z" fill="white"/>
<path d="M71.4875 32.5413C74.305 32.5413 76.5142 33.3733 78.115 35.0373C79.7159 36.7013 80.5163 39.4213 80.5163 43.1973H64.7158L64.6198 42.2853H74.4651C74.4971 40.7173 74.401 39.2773 74.1769 37.9653C73.9528 36.6213 73.6006 35.5493 73.1203 34.7493C72.6401 33.9493 71.9997 33.5493 71.1993 33.5493C70.0787 33.5493 69.1182 34.2533 68.3177 35.6613C67.5493 37.0693 67.0851 39.4053 66.925 42.6693L67.0691 42.9573C67.0371 43.3413 67.005 43.7413 66.973 44.1573C66.973 44.5733 66.973 45.0053 66.973 45.4533C66.973 47.6613 67.2772 49.4533 67.8855 50.8293C68.5259 52.2053 69.3263 53.2133 70.2868 53.8533C71.2473 54.4613 72.2238 54.7653 73.2164 54.7653C73.8887 54.7653 74.5771 54.6693 75.2815 54.4773C76.0179 54.2533 76.7543 53.8693 77.4907 53.3253C78.2271 52.7493 78.9155 51.9493 79.5558 50.9253L80.4203 51.2133C80.0361 52.4293 79.4277 53.6133 78.5953 54.7653C77.7628 55.9173 76.7063 56.8613 75.4256 57.5973C74.1449 58.3333 72.6081 58.7013 70.8151 58.7013C68.6379 58.7013 66.7169 58.2373 65.052 57.3093C63.3871 56.3813 62.0744 54.9733 61.1139 53.0853C60.1854 51.1973 59.7211 48.7973 59.7211 45.8853C59.7211 42.9093 60.2174 40.4293 61.2099 38.4453C62.2345 36.4613 63.6272 34.9893 65.3882 34.0293C67.1811 33.0373 69.2142 32.5413 71.4875 32.5413Z" fill="white"/>
<path d="M106.926 20.4453V52.7493C106.926 54.1893 107.15 55.2613 107.598 55.9653C108.047 56.6373 108.847 56.9733 110 56.9733V57.9813C109.007 57.8853 108.015 57.8373 107.022 57.8373C105.677 57.8373 104.413 57.8853 103.228 57.9813C102.075 58.0773 101.003 58.2533 100.01 58.5093V26.2053C100.01 24.7653 99.7862 23.7093 99.338 23.0373C98.9217 22.3333 98.1213 21.9813 96.9367 21.9813V20.9733C97.9612 21.0693 98.9538 21.1173 99.9143 21.1173C101.227 21.1173 102.476 21.0693 103.66 20.9733C104.845 20.8453 105.934 20.6693 106.926 20.4453ZM94.6794 32.5413C96.0882 32.5413 97.3209 32.7813 98.3774 33.2613C99.466 33.7093 100.314 34.4773 100.923 35.5653L100.347 36.0933C99.9303 35.3253 99.37 34.7813 98.6656 34.4613C97.9932 34.1093 97.2728 33.9333 96.5044 33.9333C94.8716 33.9333 93.5749 34.8933 92.6143 36.8133C91.6538 38.7013 91.1896 41.6293 91.2216 45.5973C91.2216 48.3173 91.3977 50.4933 91.7499 52.1253C92.1341 53.7253 92.6624 54.8773 93.3347 55.5813C94.0391 56.2853 94.8395 56.6373 95.736 56.6373C96.8246 56.6373 97.8011 56.2053 98.6656 55.3413C99.5301 54.4773 99.9943 53.3093 100.058 51.8373L100.298 53.5173C99.8182 55.2133 99.0338 56.5093 97.9452 57.4053C96.8886 58.2693 95.4959 58.7013 93.767 58.7013C91.8779 58.7013 90.181 58.2373 88.6762 57.3093C87.2034 56.3813 86.0508 54.9573 85.2184 53.0373C84.3859 51.0853 83.9697 48.5733 83.9697 45.5013C83.9697 42.5893 84.4339 40.1893 85.3624 38.3013C86.2909 36.3813 87.5556 34.9413 89.1565 33.9813C90.7894 33.0213 92.6303 32.5413 94.6794 32.5413Z" fill="white"/>
<path d="M118.244 20.8293C119.588 20.8293 120.645 21.1653 121.413 21.8373C122.214 22.4773 122.614 23.3733 122.614 24.5253C122.614 25.6773 122.214 26.5893 121.413 27.2613C120.645 27.9013 119.588 28.2213 118.244 28.2213C116.899 28.2213 115.826 27.9013 115.026 27.2613C114.257 26.5893 113.873 25.6773 113.873 24.5253C113.873 23.3733 114.257 22.4773 115.026 21.8373C115.826 21.1653 116.899 20.8293 118.244 20.8293ZM121.99 32.6853V53.5653C121.99 54.9093 122.214 55.8213 122.662 56.3013C123.142 56.7813 123.943 57.0213 125.063 57.0213V58.0293C124.487 57.9973 123.591 57.9653 122.374 57.9333C121.157 57.8693 119.925 57.8373 118.676 57.8373C117.427 57.8373 116.163 57.8693 114.882 57.9333C113.601 57.9653 112.641 57.9973 112 58.0293V57.0213C113.121 57.0213 113.905 56.7813 114.354 56.3013C114.834 55.8213 115.074 54.9093 115.074 53.5653V38.4453C115.074 37.0053 114.85 35.9493 114.402 35.2773C113.985 34.5733 113.185 34.2213 112 34.2213V33.2133C113.025 33.3093 114.017 33.3573 114.978 33.3573C116.323 33.3573 117.571 33.3093 118.724 33.2133C119.909 33.0853 120.997 32.9093 121.99 32.6853Z" fill="white"/>
<path d="M151.066 32.6853V52.7973C151.066 54.2373 151.29 55.3093 151.738 56.0133C152.187 56.6853 152.987 57.0213 154.14 57.0213V58.0293C153.147 57.9333 152.155 57.8853 151.162 57.8853C149.817 57.8853 148.569 57.9333 147.416 58.0293C146.263 58.1253 145.175 58.3013 144.15 58.5573V54.2373C143.382 55.8373 142.309 56.9893 140.933 57.6933C139.588 58.3653 138.083 58.7013 136.418 58.7013C135.073 58.7013 133.985 58.5253 133.152 58.1733C132.32 57.8213 131.664 57.3733 131.183 56.8293C130.639 56.2213 130.255 55.4213 130.031 54.4293C129.807 53.4373 129.694 52.1573 129.694 50.5893V38.4453C129.694 37.0053 129.47 35.9493 129.022 35.2773C128.606 34.5733 127.805 34.2213 126.621 34.2213V33.2133C127.645 33.3093 128.638 33.3573 129.598 33.3573C130.943 33.3573 132.192 33.3093 133.344 33.2133C134.529 33.0853 135.618 32.9093 136.61 32.6853V52.5573C136.61 53.3573 136.674 54.0613 136.802 54.6693C136.962 55.2773 137.251 55.7573 137.667 56.1093C138.083 56.4293 138.691 56.5893 139.492 56.5893C140.356 56.5893 141.125 56.3493 141.797 55.8693C142.501 55.3893 143.062 54.7333 143.478 53.9013C143.926 53.0373 144.15 52.0773 144.15 51.0213V38.4453C144.15 37.0053 143.926 35.9493 143.478 35.2773C143.062 34.5733 142.261 34.2213 141.077 34.2213V33.2133C142.101 33.3093 143.094 33.3573 144.054 33.3573C145.399 33.3573 146.648 33.3093 147.8 33.2133C148.985 33.0853 150.073 32.9093 151.066 32.6853Z" fill="white"/>
<path d="M173.708 32.5413C175.052 32.5413 176.141 32.7173 176.973 33.0693C177.806 33.3893 178.478 33.8373 178.99 34.4133C179.503 35.0213 179.871 35.8213 180.095 36.8133C180.319 37.7733 180.431 39.0533 180.431 40.6533V53.5653C180.431 54.9093 180.639 55.8213 181.056 56.3013C181.472 56.7813 182.192 57.0213 183.217 57.0213V58.0293C182.64 57.9973 181.76 57.9653 180.575 57.9333C179.423 57.8693 178.286 57.8373 177.165 57.8373C176.013 57.8373 174.876 57.8693 173.756 57.9333C172.635 57.9653 171.787 57.9973 171.21 58.0293V57.0213C172.075 57.0213 172.667 56.7813 172.987 56.3013C173.339 55.8213 173.515 54.9093 173.515 53.5653V38.6373C173.515 37.8373 173.451 37.1493 173.323 36.5733C173.195 35.9653 172.939 35.5013 172.555 35.1813C172.203 34.8293 171.658 34.6533 170.922 34.6533C170.09 34.6533 169.321 34.8933 168.617 35.3733C167.912 35.8533 167.336 36.5253 166.888 37.3893C166.472 38.2213 166.264 39.1653 166.264 40.2213V53.5653C166.264 54.9093 166.44 55.8213 166.792 56.3013C167.144 56.7813 167.736 57.0213 168.569 57.0213V58.0293C168.056 57.9973 167.256 57.9653 166.167 57.9333C165.111 57.8693 164.022 57.8373 162.902 57.8373C161.685 57.8373 160.436 57.8693 159.156 57.9333C157.875 57.9653 156.914 57.9973 156.274 58.0293V57.0213C157.395 57.0213 158.179 56.7813 158.627 56.3013C159.108 55.8213 159.348 54.9093 159.348 53.5653V38.4453C159.348 37.0053 159.124 35.9493 158.675 35.2773C158.259 34.5733 157.459 34.2213 156.274 34.2213V33.2133C157.299 33.3093 158.291 33.3573 159.252 33.3573C160.596 33.3573 161.845 33.3093 162.998 33.2133C164.182 33.0853 165.271 32.9093 166.264 32.6853V37.0053C167.032 35.4053 168.072 34.2693 169.385 33.5973C170.698 32.8933 172.139 32.5413 173.708 32.5413ZM188.163 32.5413C189.508 32.5413 190.597 32.7173 191.429 33.0693C192.262 33.3893 192.934 33.8373 193.446 34.4133C193.958 35.0213 194.327 35.8213 194.551 36.8133C194.775 37.7733 194.887 39.0533 194.887 40.6533V53.5653C194.887 54.9093 195.111 55.8213 195.559 56.3013C196.04 56.7813 196.84 57.0213 197.961 57.0213V58.0293C197.352 57.9973 196.44 57.9653 195.223 57.9333C194.006 57.8693 192.806 57.8373 191.621 57.8373C190.469 57.8373 189.332 57.8693 188.211 57.9333C187.091 57.9653 186.242 57.9973 185.666 58.0293V57.0213C186.53 57.0213 187.123 56.7813 187.443 56.3013C187.795 55.8213 187.971 54.9093 187.971 53.5653V38.6373C187.971 37.8373 187.891 37.1493 187.731 36.5733C187.603 35.9653 187.331 35.5013 186.915 35.1813C186.53 34.8293 185.922 34.6533 185.09 34.6533C184.257 34.6533 183.489 34.9093 182.784 35.4213C182.08 35.9333 181.504 36.6213 181.056 37.4853C180.639 38.3493 180.415 39.3093 180.383 40.3653L180.143 37.4373C181.007 35.5173 182.144 34.2213 183.553 33.5493C184.994 32.8773 186.53 32.5413 188.163 32.5413Z" fill="white"/>
<path d="M205.082 51.3093C206.33 51.3093 207.323 51.6453 208.059 52.3173C208.796 52.9573 209.164 53.8533 209.164 55.0053C209.164 56.1573 208.796 57.0693 208.059 57.7413C207.323 58.3813 206.33 58.7013 205.082 58.7013C203.833 58.7013 202.84 58.3813 202.104 57.7413C201.368 57.0693 200.999 56.1573 200.999 55.0053C200.999 53.8533 201.368 52.9573 202.104 52.3173C202.84 51.6453 203.833 51.3093 205.082 51.3093Z" fill="white"/>
<path d="M225.182 32.5413C226.431 32.5413 227.567 32.6853 228.592 32.9733C229.648 33.2293 230.513 33.5653 231.185 33.9813C232.018 34.4933 232.658 35.1333 233.106 35.9013C233.586 36.6373 233.827 37.5013 233.827 38.4933C233.827 39.6133 233.474 40.5413 232.77 41.2773C232.066 41.9813 231.153 42.3333 230.033 42.3333C228.912 42.3333 228.015 42.0133 227.343 41.3733C226.671 40.7333 226.335 39.8693 226.335 38.7813C226.335 37.7573 226.655 36.9093 227.295 36.2373C227.935 35.5333 228.672 35.0693 229.504 34.8453C229.248 34.5253 228.864 34.2533 228.352 34.0293C227.839 33.8053 227.263 33.6933 226.623 33.6933C225.63 33.6933 224.75 33.9813 223.981 34.5573C223.245 35.1333 222.621 35.9333 222.108 36.9573C221.596 37.9813 221.196 39.1813 220.908 40.5573C220.651 41.9333 220.523 43.4373 220.523 45.0693C220.523 47.5333 220.828 49.4693 221.436 50.8773C222.076 52.2853 222.877 53.2773 223.837 53.8533C224.83 54.4293 225.854 54.7173 226.911 54.7173C227.519 54.7173 228.176 54.6213 228.88 54.4293C229.616 54.2373 230.353 53.8533 231.089 53.2773C231.857 52.7013 232.562 51.8853 233.202 50.8293L234.019 51.1173C233.666 52.3013 233.09 53.4853 232.29 54.6693C231.489 55.8533 230.449 56.8293 229.168 57.5973C227.887 58.3333 226.319 58.7013 224.462 58.7013C222.38 58.7013 220.491 58.2533 218.794 57.3573C217.13 56.4293 215.785 55.0213 214.76 53.1333C213.768 51.2133 213.271 48.7493 213.271 45.7413C213.271 42.8613 213.784 40.4453 214.808 38.4933C215.865 36.5093 217.29 35.0213 219.083 34.0293C220.876 33.0373 222.909 32.5413 225.182 32.5413Z" fill="white"/>
<path d="M248.911 32.5413C251.248 32.5413 253.298 32.9733 255.058 33.8373C256.819 34.7013 258.196 36.0933 259.189 38.0133C260.181 39.9333 260.678 42.4773 260.678 45.6453C260.678 48.8133 260.181 51.3573 259.189 53.2773C258.196 55.1653 256.819 56.5413 255.058 57.4053C253.298 58.2693 251.248 58.7013 248.911 58.7013C246.638 58.7013 244.605 58.2693 242.812 57.4053C241.051 56.5413 239.658 55.1653 238.634 53.2773C237.641 51.3573 237.145 48.8133 237.145 45.6453C237.145 42.4773 237.641 39.9333 238.634 38.0133C239.658 36.0933 241.051 34.7013 242.812 33.8373C244.605 32.9733 246.638 32.5413 248.911 32.5413ZM248.911 33.5013C247.63 33.5013 246.558 34.4613 245.693 36.3813C244.829 38.2693 244.397 41.3573 244.397 45.6453C244.397 49.9333 244.829 53.0213 245.693 54.9093C246.558 56.7973 247.63 57.7413 248.911 57.7413C250.224 57.7413 251.296 56.7973 252.129 54.9093C252.993 53.0213 253.426 49.9333 253.426 45.6453C253.426 41.3573 252.993 38.2693 252.129 36.3813C251.296 34.4613 250.224 33.5013 248.911 33.5013Z" fill="white"/>
<path d="M281.109 32.5413C282.454 32.5413 283.542 32.7173 284.375 33.0693C285.207 33.3893 285.88 33.8373 286.392 34.4133C286.904 35.0213 287.272 35.8213 287.497 36.8133C287.721 37.7733 287.833 39.0533 287.833 40.6533V53.5653C287.833 54.9093 288.041 55.8213 288.457 56.3013C288.873 56.7813 289.594 57.0213 290.618 57.0213V58.0293C290.042 57.9973 289.161 57.9653 287.977 57.9333C286.824 57.8693 285.688 57.8373 284.567 57.8373C283.414 57.8373 282.278 57.8693 281.157 57.9333C280.037 57.9653 279.188 57.9973 278.612 58.0293V57.0213C279.476 57.0213 280.069 56.7813 280.389 56.3013C280.741 55.8213 280.917 54.9093 280.917 53.5653V38.6373C280.917 37.8373 280.853 37.1493 280.725 36.5733C280.597 35.9653 280.341 35.5013 279.957 35.1813C279.604 34.8293 279.06 34.6533 278.324 34.6533C277.491 34.6533 276.723 34.8933 276.018 35.3733C275.314 35.8533 274.738 36.5253 274.289 37.3893C273.873 38.2213 273.665 39.1653 273.665 40.2213V53.5653C273.665 54.9093 273.841 55.8213 274.193 56.3013C274.546 56.7813 275.138 57.0213 275.97 57.0213V58.0293C275.458 57.9973 274.658 57.9653 273.569 57.9333C272.513 57.8693 271.424 57.8373 270.303 57.8373C269.087 57.8373 267.838 57.8693 266.557 57.9333C265.277 57.9653 264.316 57.9973 263.676 58.0293V57.0213C264.796 57.0213 265.581 56.7813 266.029 56.3013C266.509 55.8213 266.749 54.9093 266.749 53.5653V38.4453C266.749 37.0053 266.525 35.9493 266.077 35.2773C265.661 34.5733 264.86 34.2213 263.676 34.2213V33.2133C264.7 33.3093 265.693 33.3573 266.653 33.3573C267.998 33.3573 269.247 33.3093 270.399 33.2133C271.584 33.0853 272.673 32.9093 273.665 32.6853V37.0053C274.434 35.4053 275.474 34.2693 276.787 33.5973C278.1 32.8933 279.54 32.5413 281.109 32.5413ZM295.565 32.5413C296.91 32.5413 297.998 32.7173 298.831 33.0693C299.663 33.3893 300.336 33.8373 300.848 34.4133C301.36 35.0213 301.728 35.8213 301.952 36.8133C302.176 37.7733 302.289 39.0533 302.289 40.6533V53.5653C302.289 54.9093 302.513 55.8213 302.961 56.3013C303.441 56.7813 304.242 57.0213 305.362 57.0213V58.0293C304.754 57.9973 303.841 57.9653 302.625 57.9333C301.408 57.8693 300.207 57.8373 299.023 57.8373C297.87 57.8373 296.734 57.8693 295.613 57.9333C294.492 57.9653 293.644 57.9973 293.068 58.0293V57.0213C293.932 57.0213 294.524 56.7813 294.845 56.3013C295.197 55.8213 295.373 54.9093 295.373 53.5653V38.6373C295.373 37.8373 295.293 37.1493 295.133 36.5733C295.005 35.9653 294.732 35.5013 294.316 35.1813C293.932 34.8293 293.324 34.6533 292.491 34.6533C291.659 34.6533 290.89 34.9093 290.186 35.4213C289.482 35.9333 288.905 36.6213 288.457 37.4853C288.041 38.3493 287.817 39.3093 287.785 40.3653L287.545 37.4373C288.409 35.5173 289.546 34.2213 290.954 33.5493C292.395 32.8773 293.932 32.5413 295.565 32.5413Z" fill="white"/>
</g>
<defs>
<clipPath id="clip0_518_46">
<rect width="321.951" height="80" fill="white"/>
</clipPath>
</defs>
</svg>
