<svg width="359" height="60" viewBox="0 0 359 60" fill="none" xmlns="http://www.w3.org/2000/svg">
<g clip-path="url(#clip0_517_7)">
<path fill-rule="evenodd" clip-rule="evenodd" d="M130.402 43.9293V39.7305H141.904V46.0604C141.904 49.4335 143.649 50.247 145.179 50.247C146.837 50.247 148.809 48.821 148.809 44.2763C148.809 40.9677 147.464 37.7248 142.856 34.9082C139.679 32.9622 135.775 30.5864 133.645 27.2546C132.213 25.02 131 21.8392 131 17.8596C131 11.7306 132.987 1.34793e-06 146.834 1.34793e-06C154 1.34793e-06 162.027 2.8459 162.027 14.6094V19.3586H150.432V14.2855C150.432 11.4798 149.214 9.66532 147.224 9.66532C145.626 9.66532 143.857 11.4993 143.857 14.2258C143.86 18.4295 145.216 20.2841 148.261 22.632C149.835 23.8461 151.903 25.294 154.277 27.0354C160.367 31.496 162.448 36.5728 162.448 43.1329C162.448 54.5031 156.283 60 145.554 60C136.685 60 130.402 56.3297 130.402 43.9293Z" fill="white"/>
<path fill-rule="evenodd" clip-rule="evenodd" d="M58.1012 14.2971C58.1012 12.3475 59.5332 11.4695 61.21 11.4695C62.9627 11.4695 64.1426 12.3475 64.1426 14.2971V24.1292H58.1012V14.2971ZM63.9712 45.619C63.9712 47.5674 62.6689 48.5452 61.0827 48.5452C59.4071 48.5452 58.1012 47.5674 58.1012 45.619V31.3432H77.7712C77.7712 23.5179 77.7602 15.8035 77.7602 15.8035C77.7602 13.3424 77.1739 9.91804 76.1311 8.0013C73.4458 3.08157 67.7238 0.151652 61.0827 0.151652C54.444 0.151652 48.7221 3.08157 46.038 8.0013C44.9928 9.91804 44.4102 13.3424 44.4102 15.8035V30.6077V44.2112C44.4102 46.3837 44.8753 49.5779 45.7173 51.3266C48.2448 56.5824 54.1674 59.7656 61.0827 59.7656C67.8095 59.7656 73.6257 56.6981 76.2217 51.603C77.1494 49.7849 77.6659 47.0206 77.6659 43.7899V37.1933H63.9712V45.619" fill="white"/>
<path fill-rule="evenodd" clip-rule="evenodd" d="M116.017 1.06364H130.218L124.07 58.7767H107.818L104.88 27.3964H104.714L101.28 58.8145H85.1153L78.8242 1.06364H93.0024L94.8824 35.7989L95.1272 42.4831H95.2924L95.6192 36.4784L98.9434 1.06364H110.308L113.876 36.4419L114.221 42.4831H114.383L114.582 35.8756L116.017 1.06364Z" fill="white"/>
<path fill-rule="evenodd" clip-rule="evenodd" d="M205.656 0.151549C201.597 0.151549 197.576 3.0839 196.002 6.97585C194.884 3.23856 191.911 0.151549 187.323 0.151549C183.967 0.151549 179.29 2.50547 178.3 7.12807L177.483 0.879766L165.336 0.8822L165.332 58.8145H178.952L178.914 15.5111C178.914 13.5578 179.794 12.0746 181.385 12.0746C182.886 12.0746 183.865 13.5578 183.865 15.5111V58.7767L196.876 58.8145L196.84 15.3917C196.84 13.4421 197.702 11.9552 199.201 11.9552C200.702 11.9552 201.703 13.4421 201.703 15.3917V58.8145H215.285V12.3303C215.285 4.7023 211.306 0.151549 205.656 0.151549Z" fill="white"/>
<path fill-rule="evenodd" clip-rule="evenodd" d="M237.865 45.1285C237.865 47.3741 236.935 48.5443 234.978 48.5443C232.55 48.5443 231.483 46.6312 231.483 42.805C231.483 39.813 232.616 37.8585 233.587 36.8295C234.575 35.7798 236.624 34.383 237.865 32.9583V45.1285ZM279.153 29.5534L291.647 0.875313L278.464 0.880556L272.941 16.6237L268.944 1.07055H253.083L265.506 29.7535L253.753 55.6089C252.574 55.1169 252.171 53.3354 252.171 46.8861V17.0499C252.171 14.1736 252.034 12.0583 251.776 10.9051C250.28 4.25981 244.046 0.152344 236.189 0.152344C228.765 0.152344 222.451 3.89209 220.348 10.0125C219.866 11.419 219.605 14.1334 219.605 16.4435V19.2735H232.55V14.2978C232.55 12.3482 233.623 11.4702 235.207 11.4702C236.791 11.4702 237.865 12.3482 237.865 14.2978V20.0054C237.865 21.7858 237.722 22.1864 237.147 22.5115C232.01 25.4268 226.747 28.5467 223.615 31.0638C217.407 36.0518 217.226 45.9923 218.691 50.761C220.571 56.8717 225.303 59.703 232.143 59.703C236.243 59.703 239.249 58.0334 240.568 55.1048L241.576 58.8152H266.061L272.842 41.6705L278.24 58.8152L291.343 58.8006L279.153 29.5534Z" fill="white"/>
<path d="M282.945 30.2156L289.367 43.4025V16.1855L282.945 30.2156Z" fill="white"/>
<path d="M299.933 58.7802V14.8051H289.746L294.54 0.898438H321.856L324.603 14.8051H315.056V58.8129L299.933 58.7802Z" fill="white"/>
<path d="M325.27 0.898438L336.447 58.7983H347.428L358.502 0.898438H345.418L342.002 31.1118L338.102 0.898438H325.27Z" fill="white"/>
<path fill-rule="evenodd" clip-rule="evenodd" d="M28.4983 0.87976V29.1572L12.7951 0.87976H0V58.8145H12.0424L12.0277 29.7272L28.5387 58.8145H40.9213L40.9421 0.87976H28.4983Z" fill="white"/>
</g>
<defs>
<clipPath id="clip0_517_7">
<rect width="358.5" height="60" fill="white"/>
</clipPath>
</defs>
</svg>
