<svg width="354" height="70" viewBox="0 0 354 70" fill="none" xmlns="http://www.w3.org/2000/svg">
<g clip-path="url(#clip0_518_36)">
<path d="M25.1448 53.1857C22.3135 53.1857 19.6287 52.8427 17.0902 52.1567C14.5518 51.4707 12.4853 50.5887 10.8906 49.5107L14.6983 42.2587C16.4231 43.3693 18.2618 44.2187 20.2144 44.8067C22.1671 45.362 24.1197 45.6397 26.0723 45.6397C27.9273 45.6397 29.3593 45.3783 30.3681 44.8557C31.4095 44.3003 31.9302 43.549 31.9302 42.6017C31.9302 41.785 31.4583 41.148 30.5146 40.6907C29.6033 40.2333 28.1714 39.7433 26.2188 39.2207C24.0058 38.6327 22.1671 38.0447 20.7026 37.4567C19.2381 36.836 17.9689 35.905 16.895 34.6637C15.8536 33.4223 15.3329 31.789 15.3329 29.7637C15.3329 27.3137 16 25.174 17.3343 23.3447C18.6686 21.4827 20.5724 20.0453 23.0458 19.0327C25.5191 18.02 28.4155 17.5137 31.735 17.5137C34.1758 17.5137 36.4538 17.775 38.5692 18.2977C40.6845 18.7877 42.507 19.5063 44.0365 20.4537L40.5218 27.6567C39.1875 26.8073 37.7068 26.1703 36.0796 25.7457C34.4849 25.2883 32.8415 25.0597 31.1492 25.0597C29.2291 25.0597 27.7158 25.37 26.6093 25.9907C25.5354 26.6113 24.9984 27.4117 24.9984 28.3917C24.9984 29.241 25.4703 29.8943 26.414 30.3517C27.3578 30.809 28.8223 31.299 30.8075 31.8217C33.0204 32.377 34.8429 32.9487 36.2748 33.5367C37.7393 34.1247 38.9922 35.023 40.0337 36.2317C41.0751 37.4403 41.5958 39.0247 41.5958 40.9847C41.5958 43.402 40.9123 45.5417 39.5455 47.4037C38.2112 49.233 36.2911 50.654 33.7852 51.6667C31.3119 52.6793 28.4318 53.1857 25.1448 53.1857Z" fill="white"/>
<path d="M76.668 25.9417L71.3959 52.4997H62.609L63.146 49.7557C62.007 50.8337 60.7215 51.634 59.2896 52.1567C57.8902 52.6793 56.442 52.9407 54.945 52.9407C52.0486 52.9407 49.738 52.1567 48.0131 50.5887C46.3208 49.0207 45.4747 46.783 45.4747 43.8757C45.4747 42.7977 45.5886 41.7033 45.8164 40.5927L48.7454 25.9417H58.0204L55.2867 39.7107C55.1565 40.3313 55.0914 40.9357 55.0914 41.5237C55.0914 43.843 56.2793 45.0027 58.655 45.0027C60.2496 45.0027 61.5676 44.5127 62.609 43.5327C63.6505 42.52 64.3664 41.0337 64.7569 39.0737L67.393 25.9417H76.668Z" fill="white"/>
<path d="M92.1613 52.9407C89.3625 52.9407 86.9055 52.4507 84.7901 51.4707C82.7073 50.458 81.0801 49.037 79.9085 47.2077C78.7695 45.3783 78.2 43.255 78.2 40.8377C78.2 37.9303 78.8997 35.317 80.299 32.9977C81.6984 30.6783 83.6511 28.849 86.1569 27.5097C88.6628 26.1703 91.4779 25.5007 94.6021 25.5007C97.5961 25.5007 100.183 26.1377 102.364 27.4117C104.544 28.653 106.139 30.417 107.148 32.7037L99.2396 36.4767C98.2633 34.1247 96.5547 32.9487 94.1139 32.9487C92.2264 32.9487 90.6643 33.6347 89.4276 35.0067C88.2235 36.3787 87.6214 38.1427 87.6214 40.2987C87.6214 41.8667 88.0608 43.1243 88.9394 44.0717C89.8507 44.9863 91.1362 45.4437 92.7959 45.4437C94.0326 45.4437 95.1228 45.166 96.0665 44.6107C97.0103 44.0553 97.8239 43.1733 98.5073 41.9647L105.293 46.0807C104.024 48.2367 102.234 49.919 99.923 51.1277C97.6449 52.3363 95.0577 52.9407 92.1613 52.9407Z" fill="white"/>
<path d="M121.241 52.9407C118.442 52.9407 115.985 52.4507 113.87 51.4707C111.787 50.458 110.16 49.037 108.988 47.2077C107.849 45.3783 107.28 43.255 107.28 40.8377C107.28 37.9303 107.979 35.317 109.379 32.9977C110.778 30.6783 112.731 28.849 115.237 27.5097C117.743 26.1703 120.558 25.5007 123.682 25.5007C126.676 25.5007 129.263 26.1377 131.444 27.4117C133.624 28.653 135.219 30.417 136.227 32.7037L128.319 36.4767C127.343 34.1247 125.634 32.9487 123.194 32.9487C121.306 32.9487 119.744 33.6347 118.507 35.0067C117.303 36.3787 116.701 38.1427 116.701 40.2987C116.701 41.8667 117.14 43.1243 118.019 44.0717C118.93 44.9863 120.216 45.4437 121.876 45.4437C123.112 45.4437 124.202 45.166 125.146 44.6107C126.09 44.0553 126.904 43.1733 127.587 41.9647L134.372 46.0807C133.103 48.2367 131.313 49.919 129.003 51.1277C126.725 52.3363 124.137 52.9407 121.241 52.9407Z" fill="white"/>
<path d="M165.454 37.1627C165.454 38.4367 165.275 39.8903 164.917 41.5237H145.488C145.813 44.3983 147.815 45.8357 151.492 45.8357C152.664 45.8357 153.803 45.656 154.909 45.2967C156.016 44.9373 157.008 44.3983 157.887 43.6797L161.744 49.5107C158.652 51.7973 154.893 52.9407 150.467 52.9407C147.668 52.9407 145.195 52.4507 143.047 51.4707C140.932 50.458 139.288 49.0533 138.117 47.2567C136.978 45.4273 136.408 43.2877 136.408 40.8377C136.408 37.9303 137.075 35.317 138.41 32.9977C139.777 30.6457 141.664 28.8163 144.072 27.5097C146.513 26.1703 149.296 25.5007 152.42 25.5007C155.056 25.5007 157.35 25.9907 159.303 26.9707C161.288 27.918 162.801 29.2737 163.843 31.0377C164.917 32.8017 165.454 34.8433 165.454 37.1627ZM151.98 32.1157C150.483 32.1157 149.231 32.524 148.222 33.3407C147.213 34.1247 146.481 35.219 146.025 36.6237H156.911C156.943 35.219 156.504 34.1247 155.593 33.3407C154.682 32.524 153.477 32.1157 151.98 32.1157Z" fill="white"/>
<path d="M177.008 52.9407C174.73 52.9407 172.533 52.6957 170.418 52.2057C168.335 51.7157 166.708 51.095 165.536 50.3437L168.905 43.8267C170.109 44.578 171.541 45.1823 173.2 45.6397C174.86 46.0643 176.487 46.2767 178.082 46.2767C180.913 46.2767 182.329 45.6397 182.329 44.3657C182.329 43.843 181.987 43.4673 181.304 43.2387C180.653 42.9773 179.595 42.7323 178.131 42.5037C176.178 42.1443 174.567 41.7687 173.298 41.3767C172.061 40.952 170.971 40.2497 170.027 39.2697C169.084 38.2897 168.612 36.9177 168.612 35.1537C168.612 32.083 169.914 29.7147 172.517 28.0487C175.153 26.35 178.554 25.5007 182.72 25.5007C184.607 25.5007 186.43 25.6967 188.187 26.0887C189.944 26.448 191.474 26.9543 192.776 27.6077L189.505 34.1247C187.292 32.7853 184.672 32.1157 181.646 32.1157C180.214 32.1157 179.14 32.3117 178.424 32.7037C177.74 33.063 177.399 33.5367 177.399 34.1247C177.399 34.6473 177.724 35.0393 178.375 35.3007C179.058 35.5293 180.165 35.7907 181.694 36.0847C183.582 36.4113 185.144 36.787 186.381 37.2117C187.65 37.6363 188.74 38.3387 189.651 39.3187C190.595 40.2987 191.067 41.638 191.067 43.3367C191.067 46.4073 189.749 48.7757 187.113 50.4417C184.477 52.1077 181.109 52.9407 177.008 52.9407Z" fill="white"/>
<path d="M203.704 52.9407C201.426 52.9407 199.229 52.6957 197.114 52.2057C195.031 51.7157 193.404 51.095 192.233 50.3437L195.601 43.8267C196.805 44.578 198.237 45.1823 199.897 45.6397C201.556 46.0643 203.184 46.2767 204.778 46.2767C207.609 46.2767 209.025 45.6397 209.025 44.3657C209.025 43.843 208.683 43.4673 208 43.2387C207.349 42.9773 206.291 42.7323 204.827 42.5037C202.874 42.1443 201.263 41.7687 199.994 41.3767C198.758 40.952 197.667 40.2497 196.724 39.2697C195.78 38.2897 195.308 36.9177 195.308 35.1537C195.308 32.083 196.61 29.7147 199.213 28.0487C201.849 26.35 205.25 25.5007 209.416 25.5007C211.303 25.5007 213.126 25.6967 214.883 26.0887C216.64 26.448 218.17 26.9543 219.472 27.6077L216.201 34.1247C213.988 32.7853 211.368 32.1157 208.342 32.1157C206.91 32.1157 205.836 32.3117 205.12 32.7037C204.436 33.063 204.095 33.5367 204.095 34.1247C204.095 34.6473 204.42 35.0393 205.071 35.3007C205.754 35.5293 206.861 35.7907 208.391 36.0847C210.278 36.4113 211.84 36.787 213.077 37.2117C214.346 37.6363 215.436 38.3387 216.348 39.3187C217.291 40.2987 217.763 41.638 217.763 43.3367C217.763 46.4073 216.445 48.7757 213.809 50.4417C211.173 52.1077 207.805 52.9407 203.704 52.9407Z" fill="white"/>
<path d="M264.572 34.8107C266.037 35.464 267.159 36.3787 267.94 37.5547C268.754 38.698 269.161 40.0537 269.161 41.6217C269.161 45.1823 267.713 47.8937 264.816 49.7557C261.92 51.585 258.145 52.4997 253.491 52.4997H234.697L241.531 18.1997H258.812C262.652 18.1997 265.581 18.902 267.599 20.3067C269.649 21.6787 270.674 23.655 270.674 26.2357C270.674 28.2283 270.137 29.9597 269.063 31.4297C267.989 32.867 266.492 33.994 264.572 34.8107ZM249.683 25.2067L248.365 31.8217H255.297C257.022 31.8217 258.324 31.495 259.202 30.8417C260.114 30.1557 260.569 29.1757 260.569 27.9017C260.569 26.105 259.219 25.2067 256.518 25.2067H249.683ZM254.028 45.4927C255.753 45.4927 257.103 45.1497 258.08 44.4637C259.056 43.7777 259.544 42.765 259.544 41.4257C259.544 40.4457 259.186 39.727 258.47 39.2697C257.754 38.7797 256.778 38.5347 255.541 38.5347H246.998L245.632 45.4927H254.028Z" fill="white"/>
<path d="M304.872 25.9417L299.6 52.4997H290.813L291.35 49.7557C290.211 50.8337 288.926 51.634 287.494 52.1567C286.094 52.6793 284.646 52.9407 283.149 52.9407C280.253 52.9407 277.942 52.1567 276.217 50.5887C274.525 49.0207 273.679 46.783 273.679 43.8757C273.679 42.7977 273.793 41.7033 274.021 40.5927L276.95 25.9417H286.225L283.491 39.7107C283.361 40.3313 283.296 40.9357 283.296 41.5237C283.296 43.843 284.484 45.0027 286.859 45.0027C288.454 45.0027 289.772 44.5127 290.813 43.5327C291.855 42.52 292.571 41.0337 292.961 39.0737L295.597 25.9417H304.872Z" fill="white"/>
<path d="M339.306 25.9417L335.01 47.5997C334.001 52.7283 332.033 56.485 329.104 58.8697C326.175 61.2543 322.318 62.4467 317.534 62.4467C312.197 62.4467 307.901 61.3033 304.647 59.0167L308.796 52.5487C309.87 53.398 311.204 54.0677 312.799 54.5577C314.394 55.0477 316.054 55.2927 317.778 55.2927C320.089 55.2927 321.83 54.7863 323.002 53.7737C324.206 52.7937 325.003 51.3073 325.394 49.3147L325.589 48.4327C323.604 50.2293 321.147 51.1277 318.218 51.1277C316.102 51.1277 314.166 50.6703 312.409 49.7557C310.651 48.841 309.252 47.5343 308.21 45.8357C307.169 44.1043 306.648 42.0953 306.648 39.8087C306.648 37.1953 307.283 34.7943 308.552 32.6057C309.821 30.417 311.562 28.6857 313.775 27.4117C315.988 26.1377 318.445 25.5007 321.147 25.5007C323.164 25.5007 324.905 25.8763 326.37 26.6277C327.867 27.379 328.957 28.555 329.641 30.1557L330.47 25.9417H339.306ZM320.951 43.6797C322.806 43.6797 324.303 43.0917 325.442 41.9157C326.614 40.7397 327.2 39.2043 327.2 37.3097C327.2 36.003 326.76 34.9577 325.882 34.1737C325.003 33.357 323.799 32.9487 322.269 32.9487C320.414 32.9487 318.901 33.553 317.73 34.7617C316.558 35.9377 315.972 37.473 315.972 39.3677C315.972 40.6743 316.411 41.7197 317.29 42.5037C318.169 43.2877 319.389 43.6797 320.951 43.6797Z" fill="white"/>
</g>
<defs>
<clipPath id="clip0_518_36">
<rect width="353.333" height="70" fill="white"/>
</clipPath>
</defs>
</svg>
