<svg width="591" height="50" viewBox="0 0 591 50" fill="none" xmlns="http://www.w3.org/2000/svg">
<path d="M477.034 49.6419H491.483V48.3551L489.911 47.997C488.48 47.639 487.835 46.8526 487.835 44.8487V25.3937H491.198C493.272 25.3937 494.345 25.8942 494.488 30.2581L494.846 39.4135C495.131 47.639 497.492 49.9287 501.499 49.9287C505.576 49.9287 506.649 47.1385 506.649 43.2047V41.5589H505.145V42.7745C505.145 45.4223 504.789 47.2819 503.786 47.2819C502.857 47.2819 502.785 46.5668 502.571 43.276L502.142 36.9821C501.57 28.541 500.496 25.6083 494.273 24.4629C500.211 22.8902 503.858 18.5262 503.858 12.3027C503.858 4.21963 497.492 0.357097 491.412 0.357097H467.021V1.64491L468.38 1.93076C470.954 2.50343 471.027 3.86251 471.027 9.65676V38.1256C471.027 44.4925 469.237 47.5677 465.159 47.5677C461.513 47.5677 459.509 45.7794 459.509 38.8407V5.0069C459.509 3.00394 460.152 2.43223 461.726 2.07419L463.658 1.64491V0.357097H448.709V1.64491L450.281 2.07419C451.712 2.50346 452.213 3.07611 452.213 5.07814V38.3403C452.213 45.8507 456.577 50 463.229 50C469.881 50 473.171 45.8506 473.171 38.1256V7.08114C473.171 3.21862 473.959 1.85953 477.105 1.85953C479.609 1.85953 480.683 2.71807 480.683 5.07814V44.8487C480.683 46.8526 480.039 47.5677 478.608 47.9258L477.034 48.3551V49.6419ZM573.029 5.07814C573.029 3.07611 573.673 2.43223 575.103 2.14543L577.034 1.71614V0.357097H562.156V1.64491L563.73 2.07419C565.161 2.50346 565.804 3.07611 565.804 5.07814V45.1364C565.804 47.0672 565.019 48.1404 562.799 48.1404C560.224 48.1404 559.866 47.2819 558.938 43.0623L549.782 0.21462H546.92L538.195 41.7023C537.192 46.3512 536.691 47.4253 534.76 47.997L533.543 48.3551V49.6419H543.772V48.3551L542.271 48.0683C540.125 47.639 539.553 46.4955 540.626 41.0584L545.776 14.5203L551.426 42.6321C552.285 46.7092 552.214 47.4965 549.137 48.0683L547.636 48.3551V49.6419H585.547V33.3333H584.188C583.473 40.8437 581.971 47.9258 575.891 47.9258H573.029V5.07814ZM550.711 36.3373V34.4065H541.054L540.769 36.3373H550.711ZM510.797 5.93671V40.1286C510.797 45.2789 510.797 47.7111 508.222 48.1404L506.935 48.3551V49.6419H517.449V48.3551C512.871 47.7112 512.871 46.1374 512.871 40.5578V8.08304L511.155 6.50938L528.68 49.6419H531.683V9.87138C531.683 4.00589 531.683 2.71807 534.546 1.93076L535.547 1.64491V0.357097H524.745V1.64491L525.961 1.93076C529.609 2.57467 529.609 4.00593 529.609 9.44214V34.3343L530.325 34.1197L517.021 0.357097H506.791V1.64491L507.792 1.93076C508.938 2.2888 509.581 3.57664 510.797 5.93671ZM487.835 2.07419H490.697C493.558 2.07419 496.205 3.93376 496.205 13.2334C496.205 22.7468 494.203 23.6766 490.197 23.6766H487.835V2.07419ZM440.197 24.5351C440.197 45.2067 438.48 48.1404 434.76 48.1404C431.04 48.1404 429.395 45.2067 429.395 24.6776C429.395 4.79228 431.184 1.93076 434.76 1.93076C438.48 1.93076 440.197 4.79228 440.197 24.5351ZM447.994 24.9644C447.994 11.3017 443.63 0 434.76 0C425.819 0 421.597 11.3017 421.597 24.9644C421.597 38.6983 425.961 50 434.76 50C443.845 50 447.994 38.6983 447.994 24.9644ZM417.379 5.07814C417.379 3.07611 417.879 2.43223 419.309 2.07419L420.882 1.64491V0.357097H406.076V1.64491L407.863 2.07419C409.294 2.43223 410.082 2.93271 410.082 5.0069V39.4135C410.082 44.2058 409.652 48.0683 406.076 48.0683C403.786 48.0683 402.07 46.2799 402.142 44.993C402.355 42.7745 406.076 42.9188 406.362 39.3413C406.577 36.7666 404.931 35.6934 403.429 35.4797C401.212 35.1929 398.494 37.0525 398.421 40.7725C398.349 45.5648 401.497 49.9287 406.862 49.9287C412.8 49.9287 417.379 45.9228 417.379 38.2681V5.07814ZM178.464 5.07814C178.464 3.07611 179.108 2.43223 180.538 2.14543L182.47 1.71614V0.357097H167.591V1.64491L169.165 2.07419C170.595 2.50346 171.239 3.07611 171.239 5.07814V45.1364C171.239 47.0672 170.452 48.1404 168.234 48.1404C165.66 48.1404 165.23 47.2819 164.301 43.0623L155.144 0.21462H152.284L143.557 41.7023C142.556 46.3512 142.054 47.4253 140.124 47.997L138.907 48.3551V49.6419H149.136V48.3551L147.634 48.0683C145.489 47.639 144.916 46.4955 145.989 41.0584L151.139 14.3769L156.79 42.6321C157.577 46.7092 157.577 47.4965 154.501 48.0683L152.999 48.3551V49.6419H190.982V33.3333H189.623C188.908 40.8437 187.405 47.9258 181.325 47.9258H178.464V5.07814ZM377.605 2.07419H379.18C383.616 2.07419 385.118 9.15532 385.618 16.6667H386.976V0.357097H361.011V16.6667H362.37C362.871 9.15532 364.374 2.07419 368.808 2.07419H370.382V44.8487C370.382 46.8526 369.739 47.5677 368.307 47.9258L366.448 48.3551V49.6419H381.899V48.3551L379.68 47.8545C378.321 47.4965 377.605 47.0673 377.605 44.8487V2.07419ZM344.917 24.8922L347.133 24.9644C350.353 25.0356 351.282 26.2522 351.928 34.0494H353.286V14.1632H351.928C351.139 20.3867 350.281 23.0326 347.206 23.1048L344.917 23.1761V2.07424H349.853C355.361 2.07424 356.577 9.0129 357.363 16.6667H358.722V0.357142H334.044V1.64495L335.618 2.07424C337.262 2.50351 337.692 3.50545 337.692 5.15038V44.8487C337.692 46.8526 337.049 47.5678 335.618 47.9258L334.044 48.3551V49.642H359.437V33.3334H358.078C357.22 40.7725 356.29 47.9258 349.853 47.9258H344.917V24.8922ZM317.949 24.8922L320.167 24.9644C323.386 25.0356 324.315 26.2522 324.959 34.0494H326.318V14.1632H324.959C324.173 20.3867 323.314 23.0326 320.239 23.1048L317.949 23.1761V2.07424H322.885C328.394 2.07424 329.609 9.15537 330.396 16.6667H331.755V0.357142H306.362V1.64495L308.651 2.07424C310.296 2.50351 310.725 3.50545 310.725 5.15038V44.8487C310.725 46.8526 310.081 47.5678 308.651 47.9258L307.077 48.3551V49.642H332.47V33.3334H331.112C330.253 40.7725 329.322 47.9258 322.885 47.9258H317.949V24.8922ZM288.55 2.07419H290.696C293.557 2.07419 296.204 3.93376 296.204 13.2334C296.204 22.6034 294.202 23.6766 290.196 23.6766H288.55V2.07419ZM277.749 49.6419H292.199V48.3551L290.624 47.997C289.194 47.639 288.55 46.8526 288.55 44.8487V25.3937H291.197C293.271 25.3937 294.344 26.2522 294.488 30.2581L294.845 39.4135C295.131 47.639 297.492 49.9287 301.497 49.9287C305.575 49.9287 306.647 47.1385 306.647 43.2047V41.5589H305.145V42.7745C305.145 45.4223 304.788 47.2819 303.786 47.2819C302.857 47.2819 302.784 46.5668 302.571 43.276L302.14 36.9821C301.569 28.3264 300.424 25.6083 294.273 24.4629C300.21 22.8902 303.858 18.5262 303.858 12.3027C303.858 4.21963 297.492 0.357097 291.411 0.357097H277.749V1.64491L279.322 2.07419C280.754 2.50346 281.397 3.07611 281.397 5.07814V44.8487C281.397 46.8526 280.754 47.5677 279.322 47.9258L277.749 48.3551V49.6419ZM266.805 2.07419H268.379C272.813 2.07419 274.315 9.15532 274.817 16.6667H276.175V0.357097H250.21V16.6667H251.569C252.069 9.15532 253.572 2.07419 258.007 2.07419H259.581V44.8487C259.581 46.8526 258.936 47.5677 257.506 47.9258L255.646 48.3551V49.6419H270.739V48.3551L268.879 47.9258C267.02 47.4965 266.805 46.0662 266.805 44.8487V2.07419ZM250.281 36.8378C250.281 22.1741 234.187 18.3116 234.187 7.6538C234.187 5.36497 235.045 1.93076 238.621 1.93076C243.771 1.93076 245.703 8.58358 246.562 16.6667H247.921V0.357097H247.062C246.704 1.93079 246.06 2.64686 245.131 2.64686C243.486 2.64686 242.627 0.0712387 238.693 0.0712387C232.613 0.0712387 228.464 5.15032 228.464 11.8022C228.464 23.8912 244.559 28.9694 244.559 40.1286C244.559 45.2068 242.198 48.0683 238.979 48.0683C234.187 48.0683 231.039 42.4183 230.181 33.3333H228.822V49.6419H229.68C230.396 47.2819 231.325 47.0673 232.112 47.0673C233.472 47.0673 234.902 49.9287 239.05 49.9287C245.417 49.9287 250.281 44.4213 250.281 36.8378ZM203.428 5.07814C203.428 3.07611 204.072 2.43223 205.502 2.14543L207.434 1.71614V0.357097H192.556V1.64491L194.13 2.07419C195.56 2.50346 196.204 3.07611 196.204 5.07814V44.8487C196.204 46.8526 195.56 47.5677 194.13 47.9258L192.556 48.3551V49.6419H215.947V33.3333H214.587C213.872 40.8437 212.37 47.9258 206.29 47.9258H203.428V5.07814ZM156.074 36.3373V34.4065H146.418L146.132 36.3373H156.074ZM114.73 49.7854H117.663L124.315 14.5925H123.314L130.609 49.7854H133.185L141.912 8.29771C142.842 3.93375 143.342 2.4322 145.059 2.002L146.418 1.64491V0.357097H136.332V1.64491L137.835 1.93076C139.98 2.36004 140.481 3.64785 139.48 8.94066L133.829 36.7666H134.687L128.964 7.43914C128.392 4.64887 128.035 2.36004 130.396 1.93076L131.968 1.64491V0.357097H118.163V1.64491L119.093 1.85953C120.524 2.21663 120.739 3.07613 121.311 5.79423L123.528 16.452L123.099 10.0139L118.163 36.0514H118.807L113.013 7.43914C112.369 4.5064 112.154 2.2888 114.443 1.85953L115.517 1.64491V0.357097H101.425V1.64491L102.784 2.002C104.071 2.36004 104.787 3.00395 105.646 6.93771L114.73 49.7854ZM76.5321 24.8922L78.7497 24.9644C81.9684 25.0356 82.8981 26.2522 83.542 34.0494H84.9011V14.1632H83.542C82.7557 20.3867 81.8971 23.0326 78.821 23.1048L76.5321 23.1761V2.07424H81.4678C86.9753 2.07424 88.1919 9.15537 88.9783 16.6667H90.3373V0.357142H65.6597V1.64495L67.2334 2.07424C68.8783 2.50351 69.3076 3.50545 69.3076 5.15038V44.8487C69.3076 46.8526 68.6637 47.5678 67.2334 47.9258L65.6597 48.3551V49.642H91.0534V33.3334H89.6934C88.8358 40.7725 87.906 47.9258 81.4678 47.9258H76.5321V24.8922ZM31.5391 49.6419H46.2028V48.3551L44.5579 47.997C43.2701 47.7111 42.4115 46.8526 42.4115 44.8487V25.3224H53.2127V44.8487C53.2127 46.8526 52.3551 47.7111 51.0673 47.997L49.4223 48.3551V49.6419H64.086V48.3551L62.5124 47.9258C61.0821 47.5677 60.4372 46.7804 60.4372 44.7784V5.07814C60.4372 3.07611 61.0821 2.43223 62.5124 2.07419L64.086 1.64491V0.357097H49.4223V1.64491L51.0673 2.07419C52.2829 2.43223 53.2127 2.93271 53.2127 5.0069V23.3907H42.4115V5.0069C42.4115 3.00394 43.1988 2.43223 44.5579 2.07419L46.2028 1.64491V0.357097H31.5391V1.64491L33.1128 2.07419C34.544 2.50346 35.187 3.07611 35.187 5.07814V44.8487C35.187 46.8526 34.544 47.5677 33.1128 47.9258L31.5391 48.3551V49.6419ZM20.5945 2.07419H22.1691C26.6034 2.07419 28.1058 9.15532 28.6063 16.6667H29.9654V0.357097H4V16.6667H5.35905C5.85956 9.15532 7.36201 2.07419 11.7963 2.07419H13.37V44.8487C13.37 46.8526 12.727 47.5677 11.2958 47.9258L9.43621 48.3551V49.6419H24.8872V48.3551L22.6696 47.8545C21.3106 47.4965 20.5945 47.0673 20.5945 44.8487V2.07419Z" fill="white"/>
</svg>
